<mxfile host="app.diagrams.net" agent="Mozilla/5.0 (Windows NT 10.0; Win64; x64) AppleWebKit/537.36 (KHTML, like Gecko) Chrome/127.0.0.0 Safari/537.36 OPR/113.0.0.0" version="24.7.17">
  <diagram id="C5RBs43oDa-KdzZeNtuy" name="Page-1">
    <mxGraphModel dx="1345" dy="764" grid="1" gridSize="10" guides="1" tooltips="1" connect="1" arrows="1" fold="1" page="1" pageScale="1" pageWidth="827" pageHeight="1169" math="0" shadow="0">
      <root>
        <mxCell id="WIyWlLk6GJQsqaUBKTNV-0" />
        <mxCell id="WIyWlLk6GJQsqaUBKTNV-1" parent="WIyWlLk6GJQsqaUBKTNV-0" />
        <mxCell id="Y8d3ejmqa2JKkRh6vmea-0" value="start" style="ellipse;whiteSpace=wrap;html=1;fillColor=#f5f5f5;fontColor=#333333;strokeColor=#666666;" vertex="1" parent="WIyWlLk6GJQsqaUBKTNV-1">
          <mxGeometry x="360" y="30" width="120" height="80" as="geometry" />
        </mxCell>
        <mxCell id="Y8d3ejmqa2JKkRh6vmea-1" value="int NumBills" style="rounded=0;whiteSpace=wrap;html=1;" vertex="1" parent="WIyWlLk6GJQsqaUBKTNV-1">
          <mxGeometry x="360" y="130" width="120" height="60" as="geometry" />
        </mxCell>
        <mxCell id="Y8d3ejmqa2JKkRh6vmea-2" value="vector&amp;lt;int&amp;gt;" style="rounded=0;whiteSpace=wrap;html=1;" vertex="1" parent="WIyWlLk6GJQsqaUBKTNV-1">
          <mxGeometry x="360" y="210" width="120" height="60" as="geometry" />
        </mxCell>
        <mxCell id="Y8d3ejmqa2JKkRh6vmea-3" value="for&amp;nbsp;" style="rhombus;whiteSpace=wrap;html=1;" vertex="1" parent="WIyWlLk6GJQsqaUBKTNV-1">
          <mxGeometry x="380" y="280" width="80" height="80" as="geometry" />
        </mxCell>
        <mxCell id="Y8d3ejmqa2JKkRh6vmea-4" value="if" style="rhombus;whiteSpace=wrap;html=1;" vertex="1" parent="WIyWlLk6GJQsqaUBKTNV-1">
          <mxGeometry x="380" y="380" width="80" height="80" as="geometry" />
        </mxCell>
        <mxCell id="Y8d3ejmqa2JKkRh6vmea-5" value="return count" style="ellipse;whiteSpace=wrap;html=1;" vertex="1" parent="WIyWlLk6GJQsqaUBKTNV-1">
          <mxGeometry x="360" y="490" width="120" height="80" as="geometry" />
        </mxCell>
        <mxCell id="Y8d3ejmqa2JKkRh6vmea-6" value="int main" style="rounded=0;whiteSpace=wrap;html=1;" vertex="1" parent="WIyWlLk6GJQsqaUBKTNV-1">
          <mxGeometry x="360" y="590" width="120" height="60" as="geometry" />
        </mxCell>
        <mxCell id="Y8d3ejmqa2JKkRh6vmea-7" value="int" style="rounded=0;whiteSpace=wrap;html=1;" vertex="1" parent="WIyWlLk6GJQsqaUBKTNV-1">
          <mxGeometry x="360" y="680" width="120" height="60" as="geometry" />
        </mxCell>
        <mxCell id="Y8d3ejmqa2JKkRh6vmea-8" value="&lt;div&gt;const int&amp;nbsp;&lt;/div&gt;const long long&amp;nbsp;&lt;div&gt;Обмежнння&lt;/div&gt;" style="rounded=0;whiteSpace=wrap;html=1;" vertex="1" parent="WIyWlLk6GJQsqaUBKTNV-1">
          <mxGeometry x="360" y="780" width="120" height="60" as="geometry" />
        </mxCell>
        <mxCell id="Y8d3ejmqa2JKkRh6vmea-9" value="cout&amp;nbsp;&lt;div&gt;cin&lt;/div&gt;&lt;div&gt;&lt;br&gt;&lt;/div&gt;" style="rounded=0;whiteSpace=wrap;html=1;" vertex="1" parent="WIyWlLk6GJQsqaUBKTNV-1">
          <mxGeometry x="360" y="880" width="120" height="60" as="geometry" />
        </mxCell>
        <mxCell id="Y8d3ejmqa2JKkRh6vmea-10" value="if&amp;nbsp;&lt;div&gt;Перевірка чи число входить в обмеження&amp;nbsp;&lt;/div&gt;" style="rounded=0;whiteSpace=wrap;html=1;" vertex="1" parent="WIyWlLk6GJQsqaUBKTNV-1">
          <mxGeometry x="140" y="980" width="120" height="60" as="geometry" />
        </mxCell>
        <mxCell id="Y8d3ejmqa2JKkRh6vmea-11" value="else if (0&amp;lt;n)&amp;nbsp;&lt;div&gt;&lt;br&gt;&lt;/div&gt;" style="rounded=0;whiteSpace=wrap;html=1;" vertex="1" parent="WIyWlLk6GJQsqaUBKTNV-1">
          <mxGeometry x="360" y="980" width="120" height="60" as="geometry" />
        </mxCell>
        <mxCell id="Y8d3ejmqa2JKkRh6vmea-12" value="else&amp;nbsp;" style="rounded=0;whiteSpace=wrap;html=1;" vertex="1" parent="WIyWlLk6GJQsqaUBKTNV-1">
          <mxGeometry x="550" y="980" width="120" height="60" as="geometry" />
        </mxCell>
        <mxCell id="Y8d3ejmqa2JKkRh6vmea-13" value="int result&amp;nbsp;" style="rounded=0;whiteSpace=wrap;html=1;" vertex="1" parent="WIyWlLk6GJQsqaUBKTNV-1">
          <mxGeometry x="550" y="1070" width="120" height="60" as="geometry" />
        </mxCell>
        <mxCell id="Y8d3ejmqa2JKkRh6vmea-14" value="cout&amp;nbsp;&lt;div&gt;Виводимо результат&lt;/div&gt;" style="rounded=0;whiteSpace=wrap;html=1;" vertex="1" parent="WIyWlLk6GJQsqaUBKTNV-1">
          <mxGeometry x="550" y="1150" width="120" height="60" as="geometry" />
        </mxCell>
        <mxCell id="Y8d3ejmqa2JKkRh6vmea-15" value="return 0&lt;div&gt;Закінчення програми&lt;/div&gt;&lt;div&gt;&lt;br&gt;&lt;/div&gt;" style="ellipse;whiteSpace=wrap;html=1;" vertex="1" parent="WIyWlLk6GJQsqaUBKTNV-1">
          <mxGeometry x="550" y="1260" width="120" height="80" as="geometry" />
        </mxCell>
        <mxCell id="Y8d3ejmqa2JKkRh6vmea-16" value="cout" style="rounded=0;whiteSpace=wrap;html=1;" vertex="1" parent="WIyWlLk6GJQsqaUBKTNV-1">
          <mxGeometry x="360" y="1070" width="120" height="60" as="geometry" />
        </mxCell>
        <mxCell id="Y8d3ejmqa2JKkRh6vmea-17" value="cout" style="rounded=0;whiteSpace=wrap;html=1;" vertex="1" parent="WIyWlLk6GJQsqaUBKTNV-1">
          <mxGeometry x="140" y="1070" width="120" height="60" as="geometry" />
        </mxCell>
        <mxCell id="Y8d3ejmqa2JKkRh6vmea-18" value="" style="endArrow=classic;html=1;rounded=0;exitX=0.5;exitY=1;exitDx=0;exitDy=0;entryX=0.5;entryY=0;entryDx=0;entryDy=0;" edge="1" parent="WIyWlLk6GJQsqaUBKTNV-1" source="Y8d3ejmqa2JKkRh6vmea-10" target="Y8d3ejmqa2JKkRh6vmea-17">
          <mxGeometry width="50" height="50" relative="1" as="geometry">
            <mxPoint x="390" y="1020" as="sourcePoint" />
            <mxPoint x="440" y="970" as="targetPoint" />
          </mxGeometry>
        </mxCell>
        <mxCell id="Y8d3ejmqa2JKkRh6vmea-19" value="" style="endArrow=classic;html=1;rounded=0;exitX=0.5;exitY=1;exitDx=0;exitDy=0;entryX=0.5;entryY=0;entryDx=0;entryDy=0;" edge="1" parent="WIyWlLk6GJQsqaUBKTNV-1" source="Y8d3ejmqa2JKkRh6vmea-11" target="Y8d3ejmqa2JKkRh6vmea-16">
          <mxGeometry width="50" height="50" relative="1" as="geometry">
            <mxPoint x="390" y="1020" as="sourcePoint" />
            <mxPoint x="440" y="970" as="targetPoint" />
          </mxGeometry>
        </mxCell>
        <mxCell id="Y8d3ejmqa2JKkRh6vmea-20" value="" style="endArrow=classic;html=1;rounded=0;exitX=0.5;exitY=1;exitDx=0;exitDy=0;" edge="1" parent="WIyWlLk6GJQsqaUBKTNV-1" source="Y8d3ejmqa2JKkRh6vmea-12" target="Y8d3ejmqa2JKkRh6vmea-13">
          <mxGeometry width="50" height="50" relative="1" as="geometry">
            <mxPoint x="390" y="1020" as="sourcePoint" />
            <mxPoint x="440" y="970" as="targetPoint" />
          </mxGeometry>
        </mxCell>
        <mxCell id="Y8d3ejmqa2JKkRh6vmea-21" value="" style="endArrow=classic;html=1;rounded=0;entryX=0.5;entryY=0;entryDx=0;entryDy=0;exitX=0.5;exitY=1;exitDx=0;exitDy=0;" edge="1" parent="WIyWlLk6GJQsqaUBKTNV-1" source="Y8d3ejmqa2JKkRh6vmea-13" target="Y8d3ejmqa2JKkRh6vmea-14">
          <mxGeometry width="50" height="50" relative="1" as="geometry">
            <mxPoint x="390" y="1120" as="sourcePoint" />
            <mxPoint x="440" y="1070" as="targetPoint" />
          </mxGeometry>
        </mxCell>
        <mxCell id="Y8d3ejmqa2JKkRh6vmea-22" value="" style="endArrow=classic;html=1;rounded=0;entryX=0.5;entryY=0;entryDx=0;entryDy=0;exitX=0.5;exitY=1;exitDx=0;exitDy=0;" edge="1" parent="WIyWlLk6GJQsqaUBKTNV-1" source="Y8d3ejmqa2JKkRh6vmea-14" target="Y8d3ejmqa2JKkRh6vmea-15">
          <mxGeometry width="50" height="50" relative="1" as="geometry">
            <mxPoint x="390" y="1120" as="sourcePoint" />
            <mxPoint x="440" y="1070" as="targetPoint" />
          </mxGeometry>
        </mxCell>
        <mxCell id="Y8d3ejmqa2JKkRh6vmea-23" value="" style="endArrow=classic;html=1;rounded=0;entryX=0.5;entryY=0;entryDx=0;entryDy=0;exitX=0;exitY=0.5;exitDx=0;exitDy=0;" edge="1" parent="WIyWlLk6GJQsqaUBKTNV-1" source="Y8d3ejmqa2JKkRh6vmea-9" target="Y8d3ejmqa2JKkRh6vmea-10">
          <mxGeometry width="50" height="50" relative="1" as="geometry">
            <mxPoint x="390" y="1020" as="sourcePoint" />
            <mxPoint x="440" y="970" as="targetPoint" />
            <Array as="points">
              <mxPoint x="200" y="910" />
            </Array>
          </mxGeometry>
        </mxCell>
        <mxCell id="Y8d3ejmqa2JKkRh6vmea-24" value="" style="endArrow=classic;html=1;rounded=0;entryX=0.5;entryY=0;entryDx=0;entryDy=0;exitX=1;exitY=0.5;exitDx=0;exitDy=0;" edge="1" parent="WIyWlLk6GJQsqaUBKTNV-1" source="Y8d3ejmqa2JKkRh6vmea-9" target="Y8d3ejmqa2JKkRh6vmea-12">
          <mxGeometry width="50" height="50" relative="1" as="geometry">
            <mxPoint x="390" y="1020" as="sourcePoint" />
            <mxPoint x="440" y="970" as="targetPoint" />
            <Array as="points">
              <mxPoint x="610" y="910" />
            </Array>
          </mxGeometry>
        </mxCell>
        <mxCell id="Y8d3ejmqa2JKkRh6vmea-26" value="" style="endArrow=classic;html=1;rounded=0;entryX=0.5;entryY=0;entryDx=0;entryDy=0;exitX=0.5;exitY=1;exitDx=0;exitDy=0;" edge="1" parent="WIyWlLk6GJQsqaUBKTNV-1" source="Y8d3ejmqa2JKkRh6vmea-9" target="Y8d3ejmqa2JKkRh6vmea-11">
          <mxGeometry width="50" height="50" relative="1" as="geometry">
            <mxPoint x="390" y="1020" as="sourcePoint" />
            <mxPoint x="440" y="970" as="targetPoint" />
          </mxGeometry>
        </mxCell>
        <mxCell id="Y8d3ejmqa2JKkRh6vmea-27" value="" style="endArrow=classic;html=1;rounded=0;entryX=0.5;entryY=0;entryDx=0;entryDy=0;exitX=0.5;exitY=1;exitDx=0;exitDy=0;" edge="1" parent="WIyWlLk6GJQsqaUBKTNV-1" source="Y8d3ejmqa2JKkRh6vmea-0" target="Y8d3ejmqa2JKkRh6vmea-1">
          <mxGeometry width="50" height="50" relative="1" as="geometry">
            <mxPoint x="390" y="220" as="sourcePoint" />
            <mxPoint x="440" y="170" as="targetPoint" />
          </mxGeometry>
        </mxCell>
        <mxCell id="Y8d3ejmqa2JKkRh6vmea-28" value="" style="endArrow=classic;html=1;rounded=0;entryX=0.5;entryY=0;entryDx=0;entryDy=0;exitX=0.5;exitY=1;exitDx=0;exitDy=0;" edge="1" parent="WIyWlLk6GJQsqaUBKTNV-1" source="Y8d3ejmqa2JKkRh6vmea-1" target="Y8d3ejmqa2JKkRh6vmea-2">
          <mxGeometry width="50" height="50" relative="1" as="geometry">
            <mxPoint x="390" y="220" as="sourcePoint" />
            <mxPoint x="440" y="170" as="targetPoint" />
          </mxGeometry>
        </mxCell>
        <mxCell id="Y8d3ejmqa2JKkRh6vmea-29" value="" style="endArrow=classic;html=1;rounded=0;entryX=0.5;entryY=0;entryDx=0;entryDy=0;exitX=0.5;exitY=1;exitDx=0;exitDy=0;" edge="1" parent="WIyWlLk6GJQsqaUBKTNV-1" source="Y8d3ejmqa2JKkRh6vmea-2" target="Y8d3ejmqa2JKkRh6vmea-3">
          <mxGeometry width="50" height="50" relative="1" as="geometry">
            <mxPoint x="390" y="220" as="sourcePoint" />
            <mxPoint x="440" y="170" as="targetPoint" />
          </mxGeometry>
        </mxCell>
        <mxCell id="Y8d3ejmqa2JKkRh6vmea-30" value="" style="endArrow=classic;html=1;rounded=0;exitX=0.5;exitY=1;exitDx=0;exitDy=0;entryX=0.5;entryY=0;entryDx=0;entryDy=0;" edge="1" parent="WIyWlLk6GJQsqaUBKTNV-1" source="Y8d3ejmqa2JKkRh6vmea-3" target="Y8d3ejmqa2JKkRh6vmea-4">
          <mxGeometry width="50" height="50" relative="1" as="geometry">
            <mxPoint x="390" y="420" as="sourcePoint" />
            <mxPoint x="440" y="370" as="targetPoint" />
          </mxGeometry>
        </mxCell>
        <mxCell id="Y8d3ejmqa2JKkRh6vmea-31" value="" style="endArrow=classic;html=1;rounded=0;entryX=0.5;entryY=0;entryDx=0;entryDy=0;exitX=0.5;exitY=1;exitDx=0;exitDy=0;" edge="1" parent="WIyWlLk6GJQsqaUBKTNV-1" source="Y8d3ejmqa2JKkRh6vmea-4" target="Y8d3ejmqa2JKkRh6vmea-5">
          <mxGeometry width="50" height="50" relative="1" as="geometry">
            <mxPoint x="390" y="520" as="sourcePoint" />
            <mxPoint x="440" y="470" as="targetPoint" />
          </mxGeometry>
        </mxCell>
        <mxCell id="Y8d3ejmqa2JKkRh6vmea-32" value="" style="endArrow=classic;html=1;rounded=0;entryX=0.5;entryY=0;entryDx=0;entryDy=0;exitX=0.5;exitY=1;exitDx=0;exitDy=0;" edge="1" parent="WIyWlLk6GJQsqaUBKTNV-1" source="Y8d3ejmqa2JKkRh6vmea-5" target="Y8d3ejmqa2JKkRh6vmea-6">
          <mxGeometry width="50" height="50" relative="1" as="geometry">
            <mxPoint x="390" y="620" as="sourcePoint" />
            <mxPoint x="440" y="570" as="targetPoint" />
          </mxGeometry>
        </mxCell>
        <mxCell id="Y8d3ejmqa2JKkRh6vmea-33" value="" style="endArrow=classic;html=1;rounded=0;entryX=0.5;entryY=0;entryDx=0;entryDy=0;exitX=0.5;exitY=1;exitDx=0;exitDy=0;" edge="1" parent="WIyWlLk6GJQsqaUBKTNV-1" source="Y8d3ejmqa2JKkRh6vmea-6" target="Y8d3ejmqa2JKkRh6vmea-7">
          <mxGeometry width="50" height="50" relative="1" as="geometry">
            <mxPoint x="390" y="720" as="sourcePoint" />
            <mxPoint x="440" y="670" as="targetPoint" />
          </mxGeometry>
        </mxCell>
        <mxCell id="Y8d3ejmqa2JKkRh6vmea-34" value="" style="endArrow=classic;html=1;rounded=0;entryX=0.5;entryY=0;entryDx=0;entryDy=0;exitX=0.5;exitY=1;exitDx=0;exitDy=0;" edge="1" parent="WIyWlLk6GJQsqaUBKTNV-1" source="Y8d3ejmqa2JKkRh6vmea-7" target="Y8d3ejmqa2JKkRh6vmea-8">
          <mxGeometry width="50" height="50" relative="1" as="geometry">
            <mxPoint x="390" y="720" as="sourcePoint" />
            <mxPoint x="440" y="670" as="targetPoint" />
          </mxGeometry>
        </mxCell>
        <mxCell id="Y8d3ejmqa2JKkRh6vmea-35" value="" style="endArrow=classic;html=1;rounded=0;entryX=0.5;entryY=0;entryDx=0;entryDy=0;exitX=0.5;exitY=1;exitDx=0;exitDy=0;" edge="1" parent="WIyWlLk6GJQsqaUBKTNV-1" source="Y8d3ejmqa2JKkRh6vmea-8" target="Y8d3ejmqa2JKkRh6vmea-9">
          <mxGeometry width="50" height="50" relative="1" as="geometry">
            <mxPoint x="390" y="820" as="sourcePoint" />
            <mxPoint x="440" y="770" as="targetPoint" />
          </mxGeometry>
        </mxCell>
      </root>
    </mxGraphModel>
  </diagram>
</mxfile>
